<svg xmlns="http://www.w3.org/2000/svg" width="190.4" height="92">
  <path fill="#ab118e" d="M128.8 47l-.6-.6a20 20 0 0 0-22.3-4.8 12 12 0 0 0-10.8-8 19.1 19.1 0 0 0-5.3-15.2C74.6 2.4 40-4.7 47.6 3.4 58.8 15 60.4 27 57.7 27c-2.7-.1-3.4-2.4-5.6-4.7-3.9-4-1.1 13.7 6.6 21.9l1.8 1.9c-15.3 15.6-22 48.7-14.1 41.2C58 76.2 70.2 74.6 70 77.3c0 2.7-2.4 3.4-4.6 5.6-4.2 3.9 13.6 1.2 21.8-6.6l2.6-2.4a20 20 0 0 0 5.2-8.3c.9 3.1 1.5 6 3.9 8.5l2.4 2.6c7.8 8.2 25.4 11.8 21.5 7.7-2.2-2.3-4.4-3.1-4.4-5.8.1-2.7 12-.5 23.2 11.3 7.7 8 2.3-26.9-12.9-42.9"/>
  <path fill="#521c5d" d="M70.2 45.3C59 55.9 54 80.2 59.6 74.8c8.3-7.8 16.7-9 16.6-7 0 1.8-1.6 2.3-3.2 3.8-2.9 2.8 9.6.9 15.3-4.6l1.8-1.7A14.1 14.1 0 0 0 70.6 45l-.4.4"/>
  <path fill="#521c5d" d="M89.7 27.2C79.1 15.9 54.8 10.9 60.2 16.6c7.8 8.2 9 16.7 7 16.6-1.8 0-2.3-1.6-3.8-3.2-2.8-3-.8 9.5 4.6 15.3l1.7 1.8a14.1 14.1 0 1 0 20-20"/>
  <path fill="#ef3120" d="M120 7.1c-.7-5.8-2.3-9-3.8-5.9-4.7 10.2-6.5 13-8.9 11.8-1.6-1-.2-7-.2-7s-22 25.7-6.6 41.3c7.9 8 20.5 8.4 28.5.7l2.6-2.4c8.2-7.8 11.8-25.4 7.7-21.5-2.3 2.2-3.1 4.4-5.8 4.4-2.7-.1-.5-12 11.3-23.2C150.4-.1 135.2.9 120 7"/>
  <path fill="#521c5d" d="M122.3 46c5.7-5.3 8.3-17.7 5.4-15-1.6 1.6-2.2 3.1-4 3-2 0-.4-8.3 7.8-16.1 5.7-5.4-18.8-1.6-30 9l-.5.4c-5.2 5-5.8 13-1.6 18.6a14.1 14.1 0 0 0-.2 19.7l1.7 1.8c5.4 5.7 17.8 8.3 15 5.4-1.5-1.6-3-2.2-3-4.1 0-1.9 8.4-.3 16.2 8C134.4 82 131 59 121 47.4l1.4-1.4"/>
</svg>
